<svg width="317" height="309" viewBox="0 0 317 309" fill="none" xmlns="http://www.w3.org/2000/svg">
<path d="M36.939 85.6313V208.202" stroke="#fce18f"/>
<path d="M5.59502 208.541L36.939 87.6239L68.283 208.541H5.59502Z" stroke="#fce18f"/>
<path fill-rule="evenodd" clip-rule="evenodd" d="M0.839523 207.362H73.878L58.7666 222.473H15.9509L0.839523 207.362ZM6.71618 209.881H11.7533L16.7904 219.955L6.71618 209.881ZM68.8409 209.881L58.7666 219.955L65.4828 209.881H68.8409Z" fill="#fbd35e"/>
<path d="M279.561 85.6313V208.202" stroke="#fce18f"/>
<path d="M310.905 208.541L279.561 87.6239L248.217 208.541H310.905Z" stroke="#fce18f"/>
<path fill-rule="evenodd" clip-rule="evenodd" d="M315.66 207.362H242.622L257.733 222.473H300.549L315.66 207.362ZM309.784 209.881H304.747L299.71 219.955L309.784 209.881ZM247.659 209.881L257.733 219.955L251.017 209.881H247.659Z" fill="#fbd35e"/>
<path fill-rule="evenodd" clip-rule="evenodd" d="M144.398 250.178L149.435 70.5199L158.67 68.8409L167.065 70.5199L172.102 250.178H144.398ZM144.398 251.857C142.159 264.729 126.768 290.139 83.1127 288.796V308.944H233.387V288.796C189.732 290.139 174.341 264.729 172.102 251.857H144.398ZM88.1499 291.314C125.089 292.588 143.558 267.808 144.398 257.733H147.756C147.756 265.289 130.966 293.833 88.1499 291.314ZM152.793 72.1989L151.114 73.0385L146.077 246.82H148.595L152.793 72.1989Z" fill="#fbd35e"/>
<path fill-rule="evenodd" clip-rule="evenodd" d="M150.865 49.7337L150.865 49.7337C152.915 49.1206 154.741 48.5745 158.25 48.5342C161.759 48.5745 163.585 49.1206 165.635 49.7337L165.635 49.7337C166.34 49.9443 167.07 50.1628 167.904 50.3714C168.368 50.3714 167.391 42.232 166.465 34.522L166.465 34.522C166.05 31.0665 165.646 27.6972 165.386 25.1857H158.67H157.83H151.114C150.854 27.6972 150.45 31.0665 150.035 34.522L150.035 34.522C149.109 42.232 148.132 50.3714 148.596 50.3714C149.43 50.1628 150.16 49.9443 150.865 49.7337ZM151.786 31.9019L150.107 48.6923C150.178 48.6207 150.213 48.5857 150.254 48.5593C150.372 48.4824 150.536 48.4775 151.786 47.8528L152.625 31.9019H151.786Z" fill="#fbd35e"/>
<path fill-rule="evenodd" clip-rule="evenodd" d="M158.509 33.5809C167.782 33.5809 175.3 26.0636 175.3 16.7905C175.3 7.51734 167.782 0 158.509 0C149.236 0 141.719 7.51734 141.719 16.7905C141.719 26.0636 149.236 33.5809 158.509 33.5809ZM158.509 0.839523C152.353 2.23873 140.879 8.22732 144.237 20.9881C144.124 20.5349 141.719 6.71618 158.509 0.839523Z" fill="#fbd35e"/>
<path fill-rule="evenodd" clip-rule="evenodd" d="M157.83 67.1622C154.955 67.4428 148.054 68.8933 143.454 72.261C137.703 76.4705 111.825 94.1506 81.1547 98.3602C49.9052 102.649 23.648 86.5734 17.8973 70.5772C16.2999 67.7708 15.2137 60.811 23.648 55.4228C34.1909 48.6875 46.6507 55.4228 45.6922 63C44.7338 70.5772 39.9416 72.261 35.1493 72.261C30.3571 72.261 60.0689 95.8344 93.6145 82.3639C112.724 74.6904 122.762 67.1587 130.528 61.3325C139.08 54.9163 144.875 50.5686 156.991 50.3779L156.991 50.3714C157.131 50.3714 157.271 50.3719 157.41 50.373C157.549 50.3719 157.689 50.3714 157.83 50.3714V50.3779C170.142 50.5713 176.401 55.042 185.596 61.6102C193.698 67.3969 204.078 74.8117 222.886 82.3639C256.431 95.8344 286.143 72.261 281.351 72.261C276.558 72.261 271.766 70.5772 270.808 63C269.849 55.4228 282.309 48.6875 292.852 55.4228C301.286 60.811 300.2 67.7708 298.603 70.5772C292.852 86.5734 266.595 102.649 235.345 98.3602C204.675 94.1506 178.797 76.4705 173.046 72.261C168.446 68.8934 160.706 67.4424 157.83 67.1618V67.1622ZM162.867 58.7666C162.867 61.5485 160.612 63.8037 157.83 63.8037C155.048 63.8037 152.793 61.5485 152.793 58.7666C152.793 55.9846 155.048 53.7294 157.83 53.7294C160.612 53.7294 162.867 55.9846 162.867 58.7666ZM141.879 55.4085C120.052 73.878 81.4337 102.422 41.1366 80.5942C55.4085 88.3248 88.1499 104.101 141.879 57.0875V55.4085ZM19.309 66.3223C16.7905 59.6061 26.0252 54.569 31.9018 53.7294V54.569C21.8276 57.0875 18.4695 62.9642 19.309 66.3223ZM34.4204 59.6061C32.1817 59.8859 28.3759 61.7889 31.0623 67.1618C30.2228 65.2029 29.7191 60.9493 34.4204 59.6061ZM280.401 53.7294C275.514 55.5073 267.606 61.0185 275.07 68.8409C272.848 65.5815 270.805 57.9962 280.401 53.7294ZM287.117 58.7666C284.185 59.7543 279.44 62.816 283.918 67.1618C282.585 65.3511 281.359 61.137 287.117 58.7666Z" fill="#fbd35e"/>
</svg>
